<?xml version="1.0" encoding="UTF-8" standalone="no"?>
<!-- Created with Inkscape (http://www.inkscape.org/) -->

<svg
   xmlns:dc="http://purl.org/dc/elements/1.1/"
   xmlns:cc="http://creativecommons.org/ns#"
   xmlns:rdf="http://www.w3.org/1999/02/22-rdf-syntax-ns#"
   xmlns:svg="http://www.w3.org/2000/svg"
   xmlns="http://www.w3.org/2000/svg"
   xmlns:sodipodi="http://sodipodi.sourceforge.net/DTD/sodipodi-0.dtd"
   xmlns:inkscape="http://www.inkscape.org/namespaces/inkscape"
   width="210mm"
   height="297mm"
   id="svg2"
   version="1.1"
   inkscape:version="0.48.3.1 r9886"
   sodipodi:docname="Documento nuevo 1">
  <defs
     id="defs4" />
  <sodipodi:namedview
     id="base"
     pagecolor="#ffffff"
     bordercolor="#666666"
     borderopacity="1.0"
     inkscape:pageopacity="0.0"
     inkscape:pageshadow="2"
     inkscape:zoom="2.8"
     inkscape:cx="349.30183"
     inkscape:cy="802.88306"
     inkscape:document-units="px"
     inkscape:current-layer="layer1"
     showgrid="false"
     inkscape:window-width="1918"
     inkscape:window-height="1062"
     inkscape:window-x="1360"
     inkscape:window-y="16"
     inkscape:window-maximized="0" />
  <metadata
     id="metadata7">
    <rdf:RDF>
      <cc:Work
         rdf:about="">
        <dc:format>image/svg+xml</dc:format>
        <dc:type
           rdf:resource="http://purl.org/dc/dcmitype/StillImage" />
        <dc:title></dc:title>
      </cc:Work>
    </rdf:RDF>
  </metadata>
  <g
     inkscape:label="Capa 1"
     inkscape:groupmode="layer"
     id="layer1">
    <g
       id="g2997"
       transform="matrix(0.18061652,0,0,0.18061652,277.14734,63.450162)">
      <rect
         ry="3.5774429"
         y="123.02184"
         x="-711.1474"
         height="96.97464"
         width="218.19295"
         id="rect2985"
         style="fill:#f2f2f2;fill-opacity:1;fill-rule:nonzero;stroke:none" />
      <text
         sodipodi:linespacing="125%"
         id="text2987"
         y="187.6716"
         x="-656.59912"
         style="font-size:40px;font-style:normal;font-weight:normal;line-height:125%;letter-spacing:0px;word-spacing:0px;fill:#000000;fill-opacity:1;stroke:none;font-family:Sans"
         xml:space="preserve"><tspan
           y="187.6716"
           x="-656.59912"
           id="tspan2989"
           sodipodi:role="line">client</tspan></text>
    </g>
    <g
       id="g3002"
       transform="matrix(0.18061652,0,0,0.18061652,504.19719,61.004462)">
      <rect
         ry="8.2728367"
         y="108.87971"
         x="-40.406101"
         height="105.05586"
         width="216.17264"
         id="rect2995"
         style="fill:#f2f2f2;fill-opacity:1;fill-rule:nonzero;stroke:none" />
      <text
         sodipodi:linespacing="125%"
         id="text2991"
         y="177.57008"
         x="-2.0203052"
         style="font-size:40px;font-style:normal;font-weight:normal;line-height:125%;letter-spacing:0px;word-spacing:0px;fill:#000000;fill-opacity:1;stroke:none;font-family:Sans"
         xml:space="preserve"><tspan
           y="177.57008"
           x="-2.0203052"
           id="tspan2993"
           sodipodi:role="line">server</tspan></text>
    </g>
    <text
       xml:space="preserve"
       style="font-size:8.01097679px;font-style:normal;font-weight:normal;line-height:125%;letter-spacing:0px;word-spacing:0px;fill:#000000;fill-opacity:1;stroke:none;font-family:Sans"
       x="93.718498"
       y="110.94075"
       id="text3007"
       sodipodi:linespacing="125%"><tspan
         sodipodi:role="line"
         id="tspan3009"
         x="93.718498"
         y="110.94075">models</tspan><tspan
         sodipodi:role="line"
         x="93.718498"
         y="120.95448"
         id="tspan3011">texturas</tspan><tspan
         sodipodi:role="line"
         x="93.718498"
         y="130.96819"
         id="tspan3015">configuracion video, audio, y teclas</tspan><tspan
         sodipodi:role="line"
         x="93.718498"
         y="140.9819"
         id="tspan3021">sonidos</tspan><tspan
         sodipodi:role="line"
         x="93.718498"
         y="150.99562"
         id="tspan3023">conexion al server inicio (check version, user, pass, etc)</tspan><tspan
         sodipodi:role="line"
         x="93.718498"
         y="161.00935"
         id="tspan3084">conexion server (envio de datos)</tspan><tspan
         sodipodi:role="line"
         x="93.718498"
         y="171.02307"
         id="tspan3025">mapa.cpp</tspan><tspan
         sodipodi:role="line"
         x="93.718498"
         y="181.03679"
         id="tspan3031">*.cpp *.h</tspan><tspan
         sodipodi:role="line"
         x="93.718498"
         y="191.05051"
         id="tspan3017" /></text>
    <text
       sodipodi:linespacing="125%"
       id="text3037"
       y="108.21358"
       x="461.07718"
       style="font-size:8.01097679px;font-style:normal;font-weight:normal;line-height:125%;letter-spacing:0px;word-spacing:0px;fill:#000000;fill-opacity:1;stroke:none;font-family:Sans"
       xml:space="preserve"><tspan
         id="tspan3045"
         y="108.21358"
         x="461.07718"
         sodipodi:role="line">recepcion de datos del cliente</tspan><tspan
         y="118.2273"
         x="461.07718"
         sodipodi:role="line"
         id="tspan3080">recepcion de datos de la pg web</tspan><tspan
         y="128.24101"
         x="461.07718"
         sodipodi:role="line"
         id="tspan3064">manejo de la BD</tspan><tspan
         y="138.25475"
         x="461.07718"
         sodipodi:role="line"
         id="tspan3076">comprobacion de datos (*.cpp, *.h)</tspan><tspan
         id="tspan3051"
         y="148.26846"
         x="461.07718"
         sodipodi:role="line">conexion al server</tspan><tspan
         y="158.28218"
         x="461.07718"
         sodipodi:role="line"
         id="tspan3072">envios de datos al cliente</tspan><tspan
         y="168.2959"
         x="461.07718"
         sodipodi:role="line"
         id="tspan3082">configuracion de actualizaciones</tspan><tspan
         y="178.30963"
         x="461.07718"
         sodipodi:role="line"
         id="tspan3078">iniciacion del server</tspan><tspan
         y="188.32335"
         x="461.07718"
         sodipodi:role="line"
         id="tspan3074" /><tspan
         id="tspan3053"
         y="198.33707"
         x="461.07718"
         sodipodi:role="line" /></text>
    <text
       xml:space="preserve"
       style="font-size:8.01097679px;font-style:normal;font-weight:normal;line-height:125%;letter-spacing:0px;word-spacing:0px;fill:#000000;fill-opacity:1;stroke:none;font-family:Sans"
       x="34.252995"
       y="203.35814"
       id="text3007-8"
       sodipodi:linespacing="125%"><tspan
         sodipodi:role="line"
         x="34.252995"
         y="203.35814"
         id="tspan3031-4">src/</tspan><tspan
         sodipodi:role="line"
         x="34.252995"
         y="213.37186"
         id="tspan3182">  main.cpp</tspan><tspan
         sodipodi:role="line"
         x="34.252995"
         y="223.38557"
         id="tspan3317">  ofw.h(openmp)</tspan><tspan
         sodipodi:role="line"
         x="34.252995"
         y="233.39931"
         id="tspan3168">  audio/</tspan><tspan
         sodipodi:role="line"
         x="34.252995"
         y="243.41302"
         id="tspan3215">  gui/</tspan><tspan
         sodipodi:role="line"
         x="34.252995"
         y="253.42674"
         id="tspan3213">  core/       , encapsulamientoss que lo usen mas de un módulo</tspan><tspan
         sodipodi:role="line"
         x="34.252995"
         y="263.44046"
         id="tspan3180">  config/    teclas, video, ...</tspan><tspan
         sodipodi:role="line"
         x="34.252995"
         y="273.45419"
         id="tspan3195">  scene/    map    character    /player    /bug    /npc     abstract_objetc    /item  /stage</tspan><tspan
         sodipodi:role="line"
         x="34.252995"
         y="283.4679"
         id="tspan3211">  server/     send_server.cpp   receipt_server.cpp</tspan></text>
    <text
       sodipodi:linespacing="125%"
       id="text3221"
       y="311.92953"
       x="33.895851"
       style="font-size:8.01097679px;font-style:normal;font-weight:normal;line-height:125%;letter-spacing:0px;word-spacing:0px;fill:#000000;fill-opacity:1;stroke:none;font-family:Sans"
       xml:space="preserve"><tspan
         id="tspan3223"
         y="311.92953"
         x="33.895851"
         sodipodi:role="line">tests/</tspan><tspan
         id="tspan3227"
         y="321.94327"
         x="33.895851"
         sodipodi:role="line">  audio/     x</tspan><tspan
         id="tspan3229"
         y="331.95697"
         x="33.895851"
         sodipodi:role="line">  gui/         x</tspan><tspan
         id="tspan3233"
         y="341.9707"
         x="33.895851"
         sodipodi:role="line">  core/       openmp x</tspan><tspan
         id="tspan3235"
         y="351.98441"
         x="33.895851"
         sodipodi:role="line">  scene/     x*  map x,   character  x   /player    /bug    /npc     objetc_general    /item  /stage</tspan><tspan
         id="tspan3237"
         y="361.99814"
         x="33.895851"
         sodipodi:role="line">  server/    x*  send_server.cpp   receipt_server.cpp</tspan></text>
    <text
       sodipodi:linespacing="125%"
       id="text3243"
       y="209.07242"
       x="452.82443"
       style="font-size:8.01097679px;font-style:normal;font-weight:normal;line-height:125%;letter-spacing:0px;word-spacing:0px;fill:#000000;fill-opacity:1;stroke:none;font-family:Sans"
       xml:space="preserve"><tspan
         id="tspan3245"
         y="209.07242"
         x="452.82443"
         sodipodi:role="line">src/</tspan><tspan
         id="tspan3247"
         y="219.08614"
         x="452.82443"
         sodipodi:role="line">  main.cpp</tspan><tspan
         id="tspan3253"
         y="229.09985"
         x="452.82443"
         sodipodi:role="line">  core/       openmp, query_BD, check_BD</tspan><tspan
         id="tspan3255"
         y="239.11359"
         x="452.82443"
         sodipodi:role="line">  config/    version_actualizaciones, </tspan><tspan
         id="tspan3257"
         y="249.1273"
         x="452.82443"
         sodipodi:role="line">  check_scene/   check_*  map    character    /player    /bug    /npc     objetc_general    /item  /stage</tspan><tspan
         id="tspan3259"
         y="259.14102"
         x="452.82443"
         sodipodi:role="line">  client/     send_client.cpp   receive_client.cpp</tspan></text>
    <text
       xml:space="preserve"
       style="font-size:8.01097679px;font-style:normal;font-weight:normal;line-height:125%;letter-spacing:0px;word-spacing:0px;fill:#000000;fill-opacity:1;stroke:none;font-family:Sans"
       x="450.32443"
       y="306.92953"
       id="text3261"
       sodipodi:linespacing="125%"><tspan
         sodipodi:role="line"
         x="450.32443"
         y="306.92953"
         id="tspan3263">tests/</tspan><tspan
         sodipodi:role="line"
         x="450.32443"
         y="316.94327"
         id="tspan3273">  client/   X* </tspan><tspan
         sodipodi:role="line"
         x="450.32443"
         y="326.95697"
         id="tspan3293">  core/     query_BD</tspan></text>
    <rect
       style="fill:#00ff00;fill-opacity:1;fill-rule:nonzero;stroke:none"
       id="rect3295"
       width="88.378372"
       height="39.256756"
       x="502.14285"
       y="397.3139"
       ry="1.5651312" />
    <rect
       style="fill:#d40000;fill-opacity:1;fill-rule:nonzero;stroke:none"
       id="rect3297"
       width="47.094593"
       height="42.972969"
       x="545.52124"
       y="397.38147"
       ry="1.5651312" />
    <path
       sodipodi:type="arc"
       style="fill:#000000;fill-opacity:1;fill-rule:nonzero;stroke:none"
       id="path3299"
       sodipodi:cx="192.14285"
       sodipodi:cy="531.64789"
       sodipodi:rx="24.642857"
       sodipodi:ry="22.5"
       d="m 216.78571,531.64789 a 24.642857,22.5 0 1 1 -0.002,-0.32038"
       sodipodi:start="0"
       sodipodi:end="6.268946"
       sodipodi:open="true"
       transform="matrix(0.05483744,0,0,0.06906907,527.68731,377.14754)" />
    <path
       style="fill:none;stroke:#000000;stroke-width:0.18918918px;stroke-linecap:butt;stroke-linejoin:miter;stroke-opacity:1"
       d="m 543.83204,424.74635 c 0.4955,0 0.99099,0 1.48649,0 0.13513,0 0.27027,0 0.4054,0 0.0451,0 0.18018,0 0.13514,0 -0.36036,0 -0.72072,0 -1.08108,0 -0.0901,0 -0.18018,0 -0.27027,0 -0.0451,0 -0.0901,0 -0.13514,0 -0.0225,0 -0.0901,0 -0.0676,0 0.36159,0 -0.15303,-0.0143 0.33784,0.0676 0.0667,0.0111 0.13514,0 0.2027,0 0.0901,0 0.18018,0 0.27027,0 0.31532,0 0.63064,0 0.94595,0 0.6982,0 1.3964,0 2.0946,0 0.18018,0 0.36036,0 0.54054,0 0.0225,0 0.0676,-0.0225 0.0676,0 0,0.0225 -0.045,0 -0.0676,0 -0.045,0 -0.0901,0 -0.13514,0 -0.36158,0 0.15303,-0.0142 -0.33784,0.0676 -0.0667,0.0111 -0.13513,0 -0.2027,0 -0.11261,0 -0.22522,0 -0.33784,0 -0.18018,0 -0.36125,0.0179 -0.54054,0 -0.11427,-0.0114 -0.22339,-0.058 -0.33784,-0.0676 -0.15711,-0.0131 -0.31531,0 -0.47297,0 -0.15766,-0.0225 -0.31437,-0.0532 -0.47297,-0.0676 -0.0897,-0.008 -0.18109,0.0127 -0.27027,0 -0.62254,-0.0889 0.206,-0.0676 -0.40541,-0.0676 -0.045,0 -0.0901,0 -0.13513,0 -0.0225,0 -0.0676,0.0225 -0.0676,0 0,-0.0601 0.32304,0.13267 0.33784,0.13513 0.0889,0.0148 0.18108,-0.0127 0.27027,0 0.0705,0.0101 0.13422,0.048 0.2027,0.0676 0.0893,0.0255 0.18217,0.0382 0.27027,0.0676 0.0956,0.0319 0.17255,0.11071 0.27027,0.13514 0.002,5.6e-4 0.20234,-3.8e-4 0.2027,0 0.0159,0.0159 0.0159,0.0516 0,0.0676 -0.0159,0.0159 -0.045,0 -0.0676,0 -0.0676,0 -0.13514,0 -0.20271,0 -0.27027,0 -0.54054,0 -0.81081,0 -0.0901,0 -0.18108,-0.0127 -0.27027,0 -0.0705,0.0101 -0.13286,0.0536 -0.2027,0.0676 -0.0442,0.009 -0.0901,0 -0.13514,0 -0.045,0.0225 -0.0873,0.0516 -0.13513,0.0676 -0.0214,0.007 -0.0835,-0.0159 -0.0676,0 0.17067,0.17067 0.0779,0.026 0.2027,0.0676 0.19571,0.0652 0.0918,0.1 0.33784,0.13513 0.0892,0.0127 0.18088,-0.0112 0.27027,0 0.0922,0.0115 0.17798,0.0573 0.27027,0.0676 0.11193,0.0124 0.2261,-0.014 0.33784,0 0.0707,0.009 0.1322,0.0575 0.2027,0.0676 0.0892,0.0127 0.18018,0 0.27027,0 0.13514,0 0.27027,0 0.40541,0 0.0225,0 0.0676,-0.0225 0.0676,0 0,0.0225 -0.0474,0.0101 -0.0676,0 -0.0285,-0.0142 -0.0374,-0.0575 -0.0676,-0.0676 -0.0427,-0.0143 -0.0901,0 -0.13513,0 -0.11262,0 -0.22523,0 -0.33784,0 -0.0901,0 -0.18088,0.0112 -0.27027,0 -0.25482,-0.0319 -0.4887,-0.16877 -0.74325,-0.2027 -0.17859,-0.0238 -0.36175,0.0223 -0.54054,0 -1.43068,-0.17884 0.33917,-0.13514 -1.08108,-0.13514 -0.11261,0 -0.22522,0 -0.33783,0 -0.0676,0 -0.13514,0 -0.20271,0 -0.0225,0 -0.0676,0.0225 -0.0676,0 0,-0.0225 0.045,0 0.0676,0 0.2175,0 -0.11534,-0.0159 0.13514,0.0676 0.0427,0.0142 0.0901,0 0.13513,0 0.0901,0 0.18109,-0.0127 0.27027,0 0.0705,0.0101 0.1322,0.0575 0.20271,0.0676 0.0892,0.0127 0.18087,-0.0112 0.27027,0 0.0921,0.0115 0.17797,0.0573 0.27027,0.0676 0.11192,0.0124 0.22591,-0.0124 0.33783,0 0.0923,0.0103 0.17835,0.0544 0.27027,0.0676 0.83603,0.11943 -0.4539,-0.14726 0.40541,0.0676 0.0437,0.0109 0.18018,0 0.13513,0 -0.0661,0 -0.41106,0.0124 -0.47297,0 -0.0494,-0.01 -0.0855,-0.0593 -0.13513,-0.0676 -0.0889,-0.0148 -0.18109,0.0127 -0.27027,0 -0.0705,-0.0101 -0.13245,-0.0559 -0.20271,-0.0676 -0.0666,-0.0111 -0.13605,0.0111 -0.2027,0 -0.5336,-0.0889 0.12163,-0.0676 -0.4054,-0.0676 -0.0225,0 -0.0835,0.0159 -0.0676,0 0.11763,-0.11764 0.13646,-0.0408 0.27027,-0.0676 0.55555,-0.18518 -0.14245,0.0237 0.4054,-0.0676 0.0703,-0.0117 0.13245,-0.0559 0.20271,-0.0676 0.13329,-0.0222 0.27289,0.0265 0.4054,0 0.3882,-0.0776 -0.0194,-0.0676 0.2027,-0.0676"
       id="path3303"
       inkscape:connector-curvature="0" />
    <path
       style="fill:none;stroke:#000000;stroke-width:0.18918918px;stroke-linecap:butt;stroke-linejoin:miter;stroke-opacity:1"
       d="m 545.31853,430.42202 c -1.1427,0 -0.0285,-0.0604 -0.54054,0.0676 -0.1105,0.0276 -0.14323,-0.0514 -0.20271,0.0676 -0.0101,0.0201 -0.0101,0.0474 0,0.0676 0.0382,0.0763 0.30319,0.25295 0.33784,0.27027 0.0637,0.0319 0.13658,0.0411 0.2027,0.0676 0.16892,0.0676 0.20271,0.13514 0.40541,0.2027 0.0427,0.0143 0.0914,-0.0109 0.13513,0 0.35085,0.0877 -0.0721,0.0676 0.27028,0.0676 0.0225,0 0.0901,0 0.0676,0 -0.31531,0 -0.63063,0 -0.94594,0 -0.0676,0 -0.13514,0 -0.20271,0 -0.0225,0 -0.0516,-0.0159 -0.0676,0 -0.0159,0.0159 -0.0202,0.0575 0,0.0676 0.0488,0.0244 0.33142,-0.0148 0.4054,0 0.48336,0.16112 -0.074,-9.5e-4 0.40541,0.0676 0.0919,0.0131 0.17834,0.0544 0.27027,0.0676 0.0669,0.01 0.13605,-0.0111 0.2027,0 0.0702,0.0117 0.13245,0.0559 0.2027,0.0676 0.0667,0.0111 0.13645,-0.0132 0.20271,0 0.43856,0.0877 -0.15059,0.0676 0.27027,0.0676 0.0225,0 -0.0451,0 -0.0676,0 -0.2175,0 0.11534,-0.0159 -0.13514,0.0676 -0.0427,0.0142 -0.0901,0 -0.13513,0 -0.24775,0 -0.4955,0 -0.74325,0 -0.33783,0 -0.67567,0 -1.01351,0 -0.15766,0 -0.3169,-0.0223 -0.47297,0 -0.16232,0.0232 -0.31091,0.1102 -0.47297,0.13513 -1.16988,0.17998 0.29734,-0.21172 -0.74325,0.13514 -0.0214,0.007 -0.0901,0 -0.0676,0 0.4993,0 -0.25601,-0.0202 0.27027,0.0676 0.0889,0.0148 0.18018,0 0.27027,0 0.63141,0 1.26596,-0.0368 1.89189,0.0676 0.20482,0.0341 0.4054,0.0901 0.60811,0.13514 0.22522,0 0.45271,-0.0319 0.67567,0 0.0997,0.0143 0.17675,0.0977 0.27027,0.13513 0.0209,0.008 0.0676,-0.0225 0.0676,0 0,0.0451 -0.0949,-0.0201 -0.13514,0 -0.0285,0.0143 -0.0391,0.0533 -0.0676,0.0676 -0.0202,0.0101 -0.0462,-0.007 -0.0676,0 -0.50816,0.16939 0.33461,-0.0285 -0.33784,0.0676 -0.18386,0.0263 -0.35625,0.1121 -0.54054,0.13513 -0.7151,0.0894 0.11056,-0.0992 -0.47297,0.0676 -0.27473,0.0785 -0.19645,0.0676 -0.40541,0.0676 -0.045,0 -0.0901,0 -0.13513,0 -0.0225,0 -0.0901,0 -0.0676,0 0.47297,0 0.94594,0 1.41892,0 0.11261,0 0.22522,0 0.33784,0 0.0225,0 0.0676,-0.0225 0.0676,0 0,0.0225 -0.0462,0.007 -0.0676,0 -0.0478,-0.0159 -0.0901,-0.0451 -0.13514,-0.0676 -0.13513,-0.0676 -0.26734,-0.14134 -0.4054,-0.2027 -0.15531,-0.069 -0.79736,-0.31083 -0.87838,-0.33784 -0.15556,-0.0519 -0.31856,-0.08 -0.47298,-0.13513 -0.16153,-0.0577 -0.31024,-0.14847 -0.47297,-0.20271 -0.49543,-0.16514 -0.18353,0.0521 -0.60811,-0.2027 -0.16949,-0.10169 -0.0386,-0.0547 0,-0.0676 0.0478,-0.0159 0.0863,-0.0553 0.13514,-0.0676 0.0437,-0.0109 0.0907,0.007 0.13513,0 1.00758,-0.16792 -0.33032,0.0255 0.47298,-0.13513 0.0442,-0.009 0.0901,0 0.13513,0 0.0676,0 0.13514,0 0.2027,0 0.0676,0 0.13716,0.0164 0.20271,0 0.0309,-0.008 0.0391,-0.0533 0.0676,-0.0676 0.0202,-0.0101 0.0901,0 0.0676,0 -0.0363,0 -0.49833,-0.0141 -0.54054,0 -0.0302,0.0101 -0.0676,0.0357 -0.0676,0.0676 0,0.0225 0.0516,-0.0159 0.0676,0 0.0159,0.0159 0,0.045 0,0.0676 0.045,0.0225 0.0948,0.0374 0.13514,0.0676 0.0159,0.0119 0.2621,0.26619 0.27027,0.27028 0.0831,0.0415 0.18332,0.035 0.27027,0.0676 0.0943,0.0354 0.17596,0.0998 0.27027,0.13514 0.087,0.0326 0.18098,0.042 0.27027,0.0676 0.0685,0.0196 0.13286,0.0536 0.2027,0.0676 0.0442,0.009 0.0901,0 0.13514,0 0.0666,0 -0.0685,0 -0.13514,0 -0.045,0 -0.0901,0 -0.13514,0 -0.0225,0 -0.0462,0.007 -0.0676,0 -0.26314,-0.0877 -0.006,-0.0676 -0.27027,-0.0676 -0.13514,0 -0.27027,0 -0.40541,0 -0.0676,0 -0.13581,0.01 -0.2027,0 -0.17109,0.006 -0.31124,-0.10818 -0.47297,-0.13514 -0.0667,-0.0111 -0.13514,0 -0.20271,0 -0.13513,0 -0.27027,0 -0.4054,0 -0.0225,0 -0.0676,0.0225 -0.0676,0 0,-0.0225 0.0451,0 0.0676,0 0.045,0 0.0901,0 0.13513,0"
       id="path3305"
       inkscape:connector-curvature="0" />
    <path
       style="fill:none;stroke:#000000;stroke-width:0.18918918px;stroke-linecap:butt;stroke-linejoin:miter;stroke-opacity:1"
       d="m 545.38609,397.65175 c -0.0216,0.22922 -0.0872,0.41565 -0.2027,0.60811 -0.0418,0.0696 -0.0933,0.13307 -0.13513,0.2027 -0.17712,0.2952 0.0582,-0.0489 -0.13514,0.33784 -0.0363,0.0726 -0.0988,0.13007 -0.13513,0.2027 -0.0318,0.0637 -0.0451,0.13514 -0.0676,0.20271 -0.0225,0.0676 -0.0559,0.13245 -0.0676,0.2027 -0.0111,0.0666 0,0.13514 0,0.2027 0,0.0451 -0.009,0.091 0,0.13514 0.0448,0.22409 0.0631,0.15766 0.13514,0.33784 0.0265,0.0661 0.0248,0.14572 0.0676,0.2027 0.0302,0.0403 0.0949,0.0374 0.13514,0.0676 0.10192,0.0764 0.16834,0.19382 0.27027,0.27027 0.0403,0.0302 0.0995,0.0319 0.13513,0.0676 0.0356,0.0356 0.0374,0.0949 0.0676,0.13514 0.0573,0.0764 0.1497,0.12319 0.2027,0.2027 0.0279,0.0419 0.0396,0.0932 0.0676,0.13514 0.0177,0.0265 0.0411,0.0499 0.0676,0.0676 0.0419,0.0279 0.1072,0.0257 0.13514,0.0676 0.025,0.0375 -0.0109,0.0914 0,0.13514 0.0122,0.0489 0.0516,0.0874 0.0676,0.13513 0.007,0.0214 0,0.0451 0,0.0676 0,0.0676 0,0.13513 0,0.2027 0,0.0901 0.0177,0.18193 0,0.27027 -0.0414,0.20702 -0.15598,0.36912 -0.27027,0.54054 -0.045,0.0676 -0.0832,0.14032 -0.13513,0.20271 -0.0612,0.0734 -0.13514,0.13513 -0.20271,0.2027 -0.11684,0.11684 -0.34039,0.32128 -0.4054,0.47297 -0.0266,0.0621 0.0132,0.13645 0,0.2027 -0.0429,0.21437 -0.16346,0.0654 0,0.33784 0.0328,0.0546 0.0901,0.0901 0.13513,0.13514 0.0451,0.045 0.0901,0.0901 0.13514,0.13513 0.0901,0.0901 0.16102,0.20472 0.27027,0.27027 0.12215,0.0733 0.28035,0.0669 0.40541,0.13514 0.1266,0.0691 0.2212,0.18544 0.33783,0.27027 0.52789,0.38392 0.27174,0.1366 0.47298,0.33783 0.0225,0.0225 0.0533,0.0391 0.0676,0.0676 0.0101,0.0202 0,0.0451 0,0.0676 0,0.0225 0.0125,0.0488 0,0.0676 -0.053,0.0795 -0.13513,0.13513 -0.2027,0.2027 -0.13513,0.13513 -0.27027,0.27027 -0.4054,0.40541 -0.0901,0.0901 -0.19068,0.17078 -0.27027,0.27027 -0.0507,0.0634 -0.0901,0.13513 -0.13514,0.2027 -0.0142,0.0213 -0.19116,0.26858 -0.2027,0.33784 -0.0148,0.0889 0,0.18018 0,0.27027 0,0.045 -0.009,0.091 0,0.13513 0.014,0.0698 0.045,0.13514 0.0676,0.20271 0.0483,0.14502 0.0606,0.21356 0.13514,0.33783 0.0418,0.0696 0.0988,0.13007 0.13514,0.20271 0.0318,0.0637 0.0411,0.13657 0.0676,0.2027 0.0374,0.0935 0.11071,0.17255 0.13514,0.27027 0.0109,0.0437 -0.0143,0.0924 0,0.13513 0.0101,0.0302 0.0533,0.0391 0.0676,0.0676 0.0101,0.0202 0,0.0451 0,0.0676 0,0.045 0.0142,0.0924 0,0.13513 -0.0101,0.0302 -0.0533,0.0391 -0.0676,0.0676 -0.0101,0.0202 0.007,0.0462 0,0.0676 -0.0159,0.0478 -0.0554,0.0863 -0.0676,0.13513 -0.0109,0.0437 0.0109,0.0914 0,0.13514 -0.0122,0.0489 -0.0489,0.0884 -0.0676,0.13513 -0.0264,0.0661 -0.0411,0.13658 -0.0676,0.20271 -0.063,0.15754 -0.10313,0.14575 -0.13514,0.33783 -0.0222,0.1333 0.0222,0.27211 0,0.40541 -0.0117,0.0702 -0.0559,0.13245 -0.0676,0.2027 -0.0111,0.0666 0,0.13514 0,0.20271 0,0.0676 -0.0132,0.13644 0,0.2027 0.01,0.0494 0.0577,0.0857 0.0676,0.13513 0.0132,0.0663 -0.0111,0.13606 0,0.20271 0.032,0.19208 0.0721,0.18029 0.13514,0.33783 0.15801,0.0352 0.0412,0.19122 0.0676,0.27027 0.0159,0.0478 0.0516,0.0874 0.0676,0.13514 0.0189,0.0566 -0.0224,0.22549 0,0.27027 0.0143,0.0285 0.0575,0.0374 0.0676,0.0676 0.0142,0.0427 0,0.0901 0,0.13513 0,0.0676 0,0.13514 0,0.20271 0,0.13513 0,0.27027 0,0.4054 0,0.0676 0.01,0.13581 0,0.2027 -0.0131,0.0919 -0.0544,0.17834 -0.0676,0.27027 -0.01,0.0669 0.01,0.13582 0,0.20271 -0.0131,0.0919 -0.0544,0.17834 -0.0676,0.27027 -0.01,0.0669 0.0111,0.13605 0,0.2027 -0.0117,0.0702 -0.0558,0.13245 -0.0676,0.2027 -0.0111,0.0666 0,0.13514 0,0.2027 0,0.0901 -0.0128,0.18109 0,0.27027 0.0249,0.1743 0.0771,0.19287 0.13513,0.33784 0.0264,0.0661 0.0357,0.139 0.0676,0.20271 0.0142,0.0285 0.0499,0.0411 0.0676,0.0676 0.20826,0.3124 -0.0731,-0.0421 0.13513,0.27027 0.0177,0.0265 0.0533,0.0391 0.0676,0.0676 0.0101,0.0201 0,0.045 0,0.0676 0,0.0225 0,0.045 0,0.0676 0,0.0775 0.0175,0.20027 0,0.27027 -0.0122,0.0489 -0.0489,0.0884 -0.0676,0.13513 -0.0264,0.0661 -0.045,0.13514 -0.0676,0.2027 -0.0225,0.0676 -0.0536,0.13287 -0.0676,0.20271 -0.009,0.0442 0,0.0901 0,0.13513 0,0.0901 0,0.18018 0,0.27027 0,0.0676 0.0111,0.13606 0,0.2027 -0.0117,0.0703 -0.0575,0.1322 -0.0676,0.20271 -0.0127,0.0892 0,0.18018 0,0.27027 0,0.0676 -0.01,0.13581 0,0.2027 0.0263,0.18386 0.10887,0.35668 0.13513,0.54054 0.01,0.0669 -0.01,0.13582 0,0.2027 0.0131,0.0919 0.0544,0.17834 0.0676,0.27027 0.0131,0.092 -0.0175,0.40291 0,0.47298 0.0244,0.0977 0.11071,0.17255 0.13514,0.27027 0.0219,0.0874 0,0.18018 0,0.27027 0,0.0676 0,0.13513 0,0.2027 0,0.0451 0.0142,0.0924 0,0.13514 -0.0159,0.0478 -0.0516,0.0874 -0.0676,0.13513 -0.0214,0.0641 0.0214,0.1386 0,0.2027 -0.0101,0.0302 -0.0533,0.0391 -0.0676,0.0676 -0.0115,0.0231 0,0.39675 0,0.47297 0,0.2928 0,0.58559 0,0.87838 0,0.18018 0,0.36036 0,0.54054 0,0.0451 0,0.0901 0,0.13514 0,0.045 0.0109,0.0914 0,0.13513 -0.0122,0.0489 -0.0516,0.0874 -0.0676,0.13514 -0.007,0.0214 0.0101,0.0474 0,0.0676 -0.0142,0.0285 -0.0575,0.0374 -0.0676,0.0676 -0.0214,0.0641 0.0214,0.13861 0,0.20271 -0.16314,0.48942 0.0195,-0.10653 -0.13514,0.2027 -0.0101,0.0201 0.0125,0.0488 0,0.0676 -0.0353,0.053 -0.0998,0.0821 -0.13513,0.13513 -0.0125,0.0188 0.007,0.0462 0,0.0676 -0.0159,0.0478 -0.0396,0.0932 -0.0676,0.13513 -0.053,0.0795 -0.1497,0.1232 -0.20271,0.20271 -0.0125,0.0187 0.0101,0.0474 0,0.0676 -0.0142,0.0285 -0.0533,0.0391 -0.0676,0.0676 -0.0101,0.0202 0,0.0451 0,0.0676 0,0.0225 -0.0159,0.0516 0,0.0676 0.0159,0.0159 0.045,0 0.0676,0 0.0225,0 0.0474,0.0101 0.0676,0 0.0285,-0.0143 0.0451,-0.0451 0.0676,-0.0676"
       id="path3307"
       inkscape:connector-curvature="0" />
    <path
       style="fill:none;stroke:#000000;stroke-width:0.18918918px;stroke-linecap:butt;stroke-linejoin:miter;stroke-opacity:1"
       d="m 545.5888,437.24635 c 0.0225,-0.0225 0.0901,-0.0451 0.0676,-0.0676 -0.0225,-0.0225 -0.0357,0.0676 -0.0676,0.0676 -0.0225,0 0.0159,-0.0516 0,-0.0676 -0.0159,-0.0159 -0.0516,0.0159 -0.0676,0 -0.0159,-0.0159 0,-0.0451 0,-0.0676 0,-0.0225 -0.0101,-0.0474 0,-0.0676 0.0143,-0.0285 0.0533,-0.0391 0.0676,-0.0676 0.0101,-0.0202 -0.0101,-0.0474 0,-0.0676 0.15461,-0.30923 -0.028,0.28672 0.13513,-0.2027 0.007,-0.0214 0,-0.0451 0,-0.0676 0,-0.0451 0,-0.0901 0,-0.13514 0,-0.045 0,-0.0901 0,-0.13513 0,-0.0451 0.0143,-0.0924 0,-0.13514 -0.0101,-0.0302 -0.0533,-0.0391 -0.0676,-0.0676 -0.0108,-0.0215 0,-0.27745 0,-0.33783 0,-0.11262 0,-0.22523 0,-0.33784 0,-0.0676 0.0132,-0.13645 0,-0.2027 -0.01,-0.0494 -0.0676,-0.0848 -0.0676,-0.13514 0,-0.0712 0.0676,-0.13148 0.0676,-0.2027 0,-0.0504 -0.0553,-0.0863 -0.0676,-0.13514 -0.009,-0.0349 -0.008,-0.38027 0,-0.4054 0.0159,-0.0478 0.045,-0.0901 0.0676,-0.13514 0.0225,-0.0225 0.0575,-0.0374 0.0676,-0.0676 0.0143,-0.0427 0,-0.0901 0,-0.13514 0.0225,-0.0225 0.0533,-0.0391 0.0676,-0.0676 0.0101,-0.0201 -0.0159,-0.0516 0,-0.0676 0.0159,-0.0159 0.0676,0.0225 0.0676,0 0,-0.0225 -0.0455,0.004 -0.0676,0 -0.0911,-0.0182 -0.18491,-0.031 -0.27027,-0.0676 -0.0746,-0.032 -0.13514,-0.0901 -0.2027,-0.13514 -0.0676,-0.045 -0.15072,-0.0728 -0.20271,-0.13513 -0.0645,-0.0774 -0.0852,-0.18282 -0.13513,-0.27027 -0.0403,-0.0705 -0.0988,-0.13007 -0.13514,-0.2027 -0.0729,-0.14586 -0.16735,-0.51459 -0.13513,-0.67568 0.01,-0.0494 0.0553,-0.0863 0.0676,-0.13514 0.0109,-0.0437 -0.0167,-0.0933 0,-0.13513 0.0282,-0.0706 0.32128,-0.45091 0.33783,-0.47297 0,0.18018 0.0199,0.36146 0,0.54054 -0.004,0.0317 -0.0533,0.0391 -0.0676,0.0676 -0.0319,0.0637 -0.0451,0.13514 -0.0676,0.20271 -0.0729,0.21862 -0.16997,0.44651 -0.2027,0.67567 -0.01,0.0669 0.0164,0.13716 0,0.20271 -0.0294,0.11766 -0.11344,0.2185 -0.13514,0.33783 -0.0242,0.13296 0,0.27027 0,0.40541 0,0.18018 0,0.36036 0,0.54054 0,0.15766 -0.0223,0.3169 0,0.47297 0.0232,0.16232 0.0901,0.31532 0.13514,0.47297 0.045,0.15766 0.0901,0.31532 0.13513,0.47298 0.007,0.024 0.22872,0.82644 0.27027,0.87838 0.10146,0.12682 0.3382,0.12241 0.40541,0.27027 0.0659,0.14498 -0.082,0.31436 -0.0676,0.47297 0.0488,0.53642 0.0957,0.12389 0.2027,0.33784 0.009,0.019 0.009,0.25131 0,0.27027 -0.0142,0.0285 -0.0533,0.0391 -0.0676,0.0676 -0.0101,0.0202 0.0101,0.0474 0,0.0676 -0.0142,0.0285 -0.0598,0.0367 -0.0676,0.0676 -0.0164,0.0655 0.0132,0.13645 0,0.2027 -0.01,0.0494 -0.0489,0.0884 -0.0676,0.13514 -0.0408,0.10199 -0.12349,0.37978 -0.13514,0.47297 -0.0196,0.15644 0,0.31532 0,0.47297 0,0.0901 0,0.18018 0,0.27027 0,0.0676 -0.0132,0.13645 0,0.20271 0.01,0.0494 0.0516,0.0874 0.0676,0.13513 0.007,0.0214 0,0.0451 0,0.0676 0,0.045 0,0.0901 0,0.13513 0,0.0225 0,-0.045 0,-0.0676 0,-0.0225 -0.0159,-0.0516 0,-0.0676 0.0159,-0.0159 0.0451,0 0.0676,0"
       id="path3309"
       inkscape:connector-curvature="0" />
    <path
       style="fill:none;stroke:#000000;stroke-width:0.18918918px;stroke-linecap:butt;stroke-linejoin:miter;stroke-opacity:1"
       d="m 545.25096,431.84094 c -0.0319,0.007 0.0221,0.47423 0,0.54054 -0.0159,0.0478 -0.0554,0.0863 -0.0676,0.13514 -0.008,0.033 -0.004,0.51434 0,0.54054 0.11219,0.67315 0.0304,-0.36492 0.13514,0.47297 0.0112,0.0894 -0.0247,0.18365 0,0.27027 0.0223,0.0781 0.10314,0.12806 0.13513,0.2027 0.28202,0.65804 -0.0311,0.0105 0.0676,0.40541 0.0122,0.0489 0.0554,0.0863 0.0676,0.13513 0.0164,0.0655 0,0.13514 0,0.20271 0,0.2027 0,0.4054 0,0.6081 0,0.0676 -0.0132,0.13645 0,0.20271 0.01,0.0494 0.0577,0.0858 0.0676,0.13513 0.0265,0.13251 -0.0191,0.27163 0,0.40541 0.0131,0.0919 0.0544,0.17834 0.0676,0.27027 0.01,0.0669 0,0.13513 0,0.2027 0,0.18018 0,0.36036 0,0.54054 0,0.0676 -0.0132,0.13645 0,0.2027 0.01,0.0494 0.0676,0.0848 0.0676,0.13514 0,0.0319 -0.0676,0.0357 -0.0676,0.0676 0,0.0319 0.0676,0.0357 0.0676,0.0676 0,0.0504 -0.0516,0.0874 -0.0676,0.13514 -0.007,0.0214 0.007,0.0462 0,0.0676 -0.0159,0.0478 -0.0554,0.0863 -0.0676,0.13513 -0.0273,0.10925 0.0221,0.22741 0,0.33784 -0.01,0.0494 -0.0593,0.0855 -0.0676,0.13513 -0.0346,0.1548 0.0259,0.31746 0,0.47298 -0.0117,0.0702 -0.0536,0.13286 -0.0676,0.2027 -0.009,0.0442 0,0.0901 0,0.13513 0,0.0901 0,0.18018 0,0.27027"
       id="path3311"
       inkscape:connector-curvature="0" />
    <path
       style="fill:none;stroke:#000000;stroke-width:0.18918918px;stroke-linecap:butt;stroke-linejoin:miter;stroke-opacity:1"
       d="m 546.46718,424.88148 c -0.0393,-0.19864 0.1611,-0.30657 0.2027,-0.47297 0.0109,-0.0437 -0.009,-0.091 0,-0.13514 0.014,-0.0698 0.045,-0.13513 0.0676,-0.2027 0.0225,-0.0676 0.045,-0.13513 0.0676,-0.2027 0.28472,-0.85414 -0.19024,0.51146 0.20271,-0.40541 0.0366,-0.0854 0.045,-0.18018 0.0676,-0.27027 0.0225,-0.0901 0.0474,-0.17962 0.0676,-0.27027 0.0249,-0.11211 0.0451,-0.22522 0.0676,-0.33784 0.0225,-0.11261 0.0561,-0.22356 0.0676,-0.33783 0.0112,-0.11206 -0.009,-0.22562 0,-0.33784 0.0132,-0.15871 0.057,-0.31407 0.0676,-0.47297 0.012,-0.17979 0,-0.36036 0,-0.54054 0,-0.18018 0.0112,-0.36072 0,-0.54054 -0.0259,-0.41487 -0.0736,-0.62635 -0.20271,-1.01352 -0.0608,-0.18256 -0.14185,-0.35798 -0.2027,-0.54054 -0.0519,-0.15555 -0.0901,-0.31532 -0.13514,-0.47297 -0.0676,-0.18018 -0.13798,-0.35932 -0.2027,-0.54054 -0.0479,-0.13415 -0.0762,-0.27573 -0.13513,-0.40541 -0.0543,-0.11955 -0.13893,-0.22304 -0.20271,-0.33784 -0.0879,-0.15821 -0.1592,-0.29899 -0.2027,-0.47297 -0.005,-0.0218 0,-0.045 0,-0.0676 0,-0.15265 -0.0101,0.0302 0.0676,-0.2027 0.007,-0.0214 -0.005,-0.0457 0,-0.0676 0.0173,-0.0691 0.045,-0.13513 0.0676,-0.2027 0.0225,-0.0676 0.045,-0.13513 0.0676,-0.2027 0.0225,-0.0676 0.0587,-0.13203 0.0676,-0.2027 0.014,-0.11175 0,-0.22523 0,-0.33784 0,-0.0901 0,-0.18018 0,-0.27027 0,-0.11262 0,-0.22523 0,-0.33784 0,-0.15766 0.0223,-0.3169 0,-0.47297 -0.0232,-0.16232 -0.0954,-0.31391 -0.13513,-0.47298 -0.0279,-0.11141 -0.0533,-0.22388 -0.0676,-0.33783 -0.008,-0.0671 0.0214,-0.13861 0,-0.20271 -0.0257,-0.077 -0.10498,-0.1273 -0.13514,-0.2027 -0.0214,-0.0535 0.017,-0.40482 0,-0.47297 -0.008,-0.0309 -0.0575,-0.0373 -0.0676,-0.0676 -0.0143,-0.0427 0.009,-0.091 0,-0.13513 -0.014,-0.0698 -0.048,-0.13423 -0.0676,-0.20271 -0.0255,-0.0893 -0.0382,-0.18217 -0.0676,-0.27027 -0.0159,-0.0478 -0.0489,-0.0884 -0.0676,-0.13513 -0.0265,-0.0661 -0.045,-0.13514 -0.0676,-0.20271 -0.0225,-0.0676 -0.0558,-0.13245 -0.0676,-0.2027 -0.0111,-0.0666 0.0111,-0.13605 0,-0.2027 -0.0117,-0.0703 -0.0451,-0.13514 -0.0676,-0.2027 0,-0.0901 0.0112,-0.18088 0,-0.27028 -0.0115,-0.0921 -0.056,-0.17812 -0.0676,-0.27027 -0.0112,-0.0894 0.0127,-0.18108 0,-0.27027 -0.0101,-0.0705 -0.048,-0.13422 -0.0676,-0.2027 -0.0255,-0.0893 -0.045,-0.18018 -0.0676,-0.27027 -0.0225,-0.0901 -0.0451,-0.18018 -0.0676,-0.27027 -0.0451,-0.13513 -0.0977,-0.26798 -0.13514,-0.4054 -0.0302,-0.1108 -0.0374,-0.22704 -0.0676,-0.33784 -0.0375,-0.13743 -0.10966,-0.26526 -0.13514,-0.40541 -0.0436,-0.23982 0.0436,-0.50342 0,-0.74324 -0.0217,-0.11933 -0.11344,-0.21851 -0.13513,-0.33784 -0.0242,-0.13295 0,-0.27027 0,-0.4054 0,-0.11262 0,-0.22523 0,-0.33784 0,-0.13514 0,-0.27027 0,-0.40541 0,-0.11261 -0.0296,-0.22919 0,-0.33784 0.0397,-0.14576 0.16295,-0.25964 0.2027,-0.4054 0.0296,-0.10864 -0.0102,-0.22569 0,-0.33784 0.0124,-0.13643 0.0552,-0.26897 0.0676,-0.4054 0.0102,-0.11215 -0.0273,-0.22859 0,-0.33784 0.0416,-0.16641 0.16676,-0.30526 0.2027,-0.47297 0.033,-0.15416 0,-0.31532 0,-0.47298 0,-0.15765 0,-0.31531 0,-0.47297 0,-0.18018 0.0238,-0.36194 0,-0.54054 -0.0217,-0.16253 -0.0954,-0.3139 -0.13514,-0.47297 -0.14426,-0.57704 0.0292,-0.10545 -0.2027,-0.74325 -0.0414,-0.11398 -0.10322,-0.22082 -0.13513,-0.33783 -0.036,-0.13218 -0.0282,-0.27419 -0.0676,-0.40541 -0.0289,-0.0965 -0.0998,-0.17596 -0.13514,-0.27027 -0.0326,-0.087 -0.035,-0.18332 -0.0676,-0.27027 -0.0451,-0.0901 -0.0901,-0.18018 -0.13514,-0.27027 0,-0.0225 0.007,-0.0462 0,-0.0676 -0.0159,-0.0478 -0.0554,-0.0863 -0.0676,-0.13513 -0.003,-0.0118 -0.003,-0.32603 0,-0.33784 0.0244,-0.0977 0.11071,-0.17255 0.13514,-0.27027 0.0109,-0.0437 -0.0109,-0.0914 0,-0.13514 0.0122,-0.0488 0.0554,-0.0863 0.0676,-0.13513 0.0109,-0.0437 -0.0109,-0.0914 0,-0.13514 0.0122,-0.0489 0.0554,-0.0863 0.0676,-0.13513 0.0109,-0.0437 0,-0.0901 0,-0.13514 0,-0.13513 0,-0.27027 0,-0.4054 0,-0.0225 0.0159,-0.0516 0,-0.0676 -0.0159,-0.0159 -0.0676,0.0225 -0.0676,0 0,-0.0318 0.0533,-0.0391 0.0676,-0.0676 0.0101,-0.0201 0,-0.045 0,-0.0676"
       id="path3313"
       inkscape:connector-curvature="0" />
  </g>
</svg>
